# xmcd CD database file
#
# Track frame offsets:
#	150
#	10324
#	22540
#	35710
#	46230
#	60293
#	73655
#	86140
#	96085
#	111345
#	124113
#
# Disc length: 1823 seconds
#
# Revision: 0
# Processed by: cddbd v1.5.1PL0 Copyright (c) Steve Scherf et al.
# Submitted via: CDex 1.51
#
DISCID=87071d0b
DTITLE=Charley Pride - Greatest Hits
DYEAR=1996
DGENRE=Country
TTITLE0=Just Between You And Me
TTITLE1=Kaw-Liga
TTITLE2=I'm So Afraid Of Losing You Again
TTITLE3=I Know One
TTITLE4=Never Been So Loved In All My Life
TTITLE5=All I Have To Offer You Is Me
TTITLE6=Crystal Chandelier
TTITLE7=Someone Loves You Honey
TTITLE8=Burgers And Fries
TTITLE9=I Hope You're Feelin' Me
TTITLE10=She's Too Good To Be True
EXTD=YEAR: 1996
EXTT0=
EXTT1=
EXTT2=
EXTT3=
EXTT4=
EXTT5=
EXTT6=
EXTT7=
EXTT8=
EXTT9=
EXTT10=
PLAYORDER=
